PathFileType	4	(X/Y/Z)	E:\Marcel_BSc\Ayumi_22_01_2025\22-01-2025\conv_dl_0.trc
DataRate	CameraRate	NumFrames	NumMarkers	Units	OrigDataRate	OrigDataStartFrame	OrigNumFrames
200.0	200.0	4	47	mm	200.0	1762	2348	
Frame#	Time	FHD			LBHD			RBHD			RBAR			LBAR			RSACR			LSACR			USACR			C7			CLAV			T10			RSHO			LSHO			LTHI1			LTHI3			LTHI2			LTIB1			LTIB2			LTIB3			LMMAL			LLMAL			LHEE			LMT1			LMT5			LMT3			RTHI1			RTHI2			RTHI3			RTIB1			RTIB3			RTIB2			RLMAL			RMMAL			RHEE			RMT5			RMT1			RMT3			LMUPA			LDUPA			LUUPA			LRAD			RUL			RRAD			RUFIN			RMUPA			RDUPA			RUUPA			
		X1	Y1	Z1	X2	Y2	Z2	X3	Y3	Z3	X4	Y4	Z4	X5	Y5	Z5	X6	Y6	Z6	X7	Y7	Z7	X8	Y8	Z8	X9	Y9	Z9	X10	Y10	Z10	X11	Y11	Z11	X12	Y12	Z12	X13	Y13	Z13	X14	Y14	Z14	X15	Y15	Z15	X16	Y16	Z16	X17	Y17	Z17	X18	Y18	Z18	X19	Y19	Z19	X20	Y20	Z20	X21	Y21	Z21	X22	Y22	Z22	X23	Y23	Z23	X24	Y24	Z24	X25	Y25	Z25	X26	Y26	Z26	X27	Y27	Z27	X28	Y28	Z28	X29	Y29	Z29	X30	Y30	Z30	X31	Y31	Z31	X32	Y32	Z32	X33	Y33	Z33	X34	Y34	Z34	X35	Y35	Z35	X36	Y36	Z36	X37	Y37	Z37	X38	Y38	Z38	X39	Y39	Z39	X40	Y40	Z40	X41	Y41	Z41	X42	Y42	Z42	X43	Y43	Z43	X44	Y44	Z44	X45	Y45	Z45	X46	Y46	Z46	X47	Y47	Z47	
1762	8.8	-164.73557	808.05487	-568.09363	-141.68774	832.68732	-509.547	-130.77116	829.24945	-640.54437	416.10559	257.29529	-1723.3376	286.68341	301.09061	500.04434	542.85974	866.5174	-657.98541	543.32532	867.63507	-584.64087	531.08917	870.40234	-621.3255	81.178436	931.99634	-587.0816	117.93507	778.86664	-597.07568	350.62558	915.63464	-613.72894	69.342804	790.84369	-733.22229	104.37035	806.12	-424.25302	425.70929	559.61322	-403.83646	397.26508	502.02048	-418.39026	362.94473	537.67029	-407.4939	305.42709	235.60735	-407.14148	357.61002	234.57219	-407.22818	330.89563	174.36861	-412.74741	327.14734	75.044434	-499.5466	350.11078	70.614723	-424.27957	388.66904	34.888126	-471.6431	191.33684	45.072063	-449.03342	222.11682	26.926626	-375.35126	194.7065	42.114315	-414.1752	430.88522	555.34497	-837.82361	368.16876	535.81927	-836.2901	401.75562	499.17477	-821.53851	310.23941	269.67563	-829.74683	331.62219	209.65222	-815.55005	360.67642	267.50626	-825.71265	346.40955	71.387527	-784.06323	309.33624	84.225685	-715.88007	385.43753	31.016378	-732.57526	211.61203	29.583195	-818.00262	184.75197	42.616261	-757.09332	191.46469	38.696804	-787.776	215.76408	659.26093	-374.93668	261.75131	676.24872	-365.05774	194.43127	717.23346	-378.43393	295.49759	346.66171	-331.46945	215.7056	330.19196	-886.61774	216.10936	325.07968	-823.77515	216.3783	250.84058	-824.69958	143.17	723.21149	-821.03546	165.73761	668.00494	-838.98944	184.91257	744.70581	-836.43707
1763	8.805	-164.49347	806.52087	-568.14661	-141.67038	831.22357	-509.5412	-130.60989	827.86902	-640.52527	416.14691	256.04248	-1723.2849	286.97873	299.78036	500.09637	542.91333	866.28613	-657.82257	543.44312	867.33746	-584.52173	531.18561	870.04883	-621.18756	81.100494	931.32062	-586.86676	118.11205	778.2879	-596.96863	350.68259	915.2981	-613.49921	69.49308	790.4101	-733.09528	104.5013	805.2865	-424.20224	425.94345	559.55261	-403.58688	397.33862	501.95758	-418.2045	363.12064	537.7052	-407.25449	305.58859	235.60274	-406.93985	357.58038	234.54469	-407.12888	330.95862	174.3864	-412.65015	327.17746	75.107483	-499.5311	350.12418	70.599121	-424.23187	388.68506	34.854809	-471.62766	191.37717	45.109989	-449.01086	222.13446	26.956787	-375.32419	194.70619	42.185642	-414.17212	430.99112	555.27856	-837.74451	368.26746	535.8338	-836.2403	401.81284	499.17413	-821.46783	310.19211	269.73163	-829.71814	331.67807	209.76259	-815.5943	360.62341	267.51895	-825.67932	346.43127	71.41124	-784.06744	309.3667	84.270546	-715.85907	385.44745	31.031128	-732.58453	211.70836	29.563231	-817.96735	184.78171	42.640911	-757.08508	191.51813	38.7019	-787.7594	215.82501	658.73108	-374.79636	261.82376	675.65826	-364.85587	194.48781	716.59375	-378.3786	295.69284	346.39905	-331.254	215.84006	330.19904	-886.65613	216.03835	325.24448	-823.8302	216.59454	250.80199	-824.73358	143.27788	723.12988	-821.1123	165.78543	667.99878	-839.09619	184.9686	744.6828	-836.4552
1764	8.81	-164.26309	805.03345	-568.20801	-141.57071	829.6803	-509.5412	-130.54921	826.57062	-640.87109	415.99164	254.74886	-1723.2056	287.07755	298.42932	500.17529	543.00397	866.08527	-657.70416	543.4425	867.16089	-584.29968	531.22937	869.87189	-620.98108	80.997856	931.24298	-586.29761	118.3372	777.63678	-596.92371	350.69952	915.02863	-613.27234	71.123848	789.11145	-732.21265	103.62733	805.0545	-423.61008	426.07907	559.43439	-403.42426	397.4783	501.8732	-417.99417	363.20163	537.61072	-407.10803	305.42099	235.48235	-406.97443	357.58878	234.5159	-407.01273	330.96625	174.27042	-412.58322	327.1701	75.075256	-499.48782	350.13708	70.560287	-424.19397	388.65744	34.939987	-471.59714	191.35965	45.026566	-449.06116	222.14481	26.881191	-375.34955	194.36856	42.448532	-414.13361	431.04056	555.30115	-837.62109	368.30228	535.7663	-836.14923	401.82074	499.11615	-821.41418	310.16611	269.71417	-829.69592	331.6806	209.79721	-815.6228	360.60727	267.55124	-825.63483	346.40067	71.405975	-784.10486	309.33652	84.224258	-715.90991	385.42999	31.071123	-732.59143	211.74173	29.477016	-817.92804	184.79411	42.600388	-757.08569	191.57649	38.588924	-787.73419	215.98674	658.24255	-374.6539	261.98962	675.30157	-364.59338	194.5831	716.01556	-378.31891	295.80139	345.9046	-331.215	216.00133	330.37042	-886.63959	216.31133	325.22025	-823.79016	216.83855	250.71877	-824.85596	143.36667	723.24872	-821.16095	165.89308	668.1817	-839.271	185.04622	744.85461	-836.50867
1765	8.815	-164.00522	803.53546	-568.2475	-141.46849	828.23199	-509.47351	-130.30428	825.27643	-640.79663	415.7811	253.41759	-1723.1211	287.12119	297.04062	500.25909	543.12372	865.84924	-657.51282	543.5448	866.95184	-584.08246	531.33215	869.62195	-620.78473	80.968597	930.80518	-585.95526	118.53265	777.30646	-596.79102	350.78906	914.71716	-613.052	69.681236	790.13574	-732.69934	105.01008	803.80377	-423.97116	426.10458	559.33002	-403.31485	397.51755	501.86288	-417.73105	363.30692	537.67224	-406.84235	305.43298	235.42424	-406.76193	357.59171	234.43834	-406.86566	330.97421	174.21703	-412.47369	327.16403	75.089493	-499.44748	350.15332	70.545921	-424.16159	388.7157	34.870529	-471.57709	191.36169	45.104115	-449.05789	222.12709	26.905558	-375.32086	194.68886	42.26807	-414.08914	431.1485	555.13763	-837.56885	368.13919	536.07684	-835.89514	401.85828	499.08984	-821.31604	310.17438	269.7233	-829.65991	330.82687	208.81091	-814.96869	360.58234	267.53427	-825.604	346.38	71.39904	-784.09406	309.34402	84.249916	-715.88306	385.43698	31.056675	-732.59454	211.78424	29.461584	-817.87958	184.83212	42.594639	-757.05939	191.63374	38.589035	-787.70044	216.28883	657.99445	-374.40393	262.20877	675.15851	-364.27823	194.65767	715.83618	-378.07019	296.03616	345.62527	-331.05679	216.25175	330.46365	-886.63751	216.45592	325.37323	-823.76862	216.97876	250.67529	-824.88159	143.51305	723.66046	-821.13751	166.07056	668.63977	-839.44025	185.19586	745.23846	-836.53046
